#!OML:ASF X:\für Bonn\!DataBase\2005_08_11_Bastian_Final\c3d\Bastian.ASF
:FULLY-SPECIFIED
:DEGREES
156
root 0.140656 16.6093 6.57234 177.242 -9.13726 -180.225
lowerback 18.8474 -1.84906 -0.688232
upperback 5.79727 -3.45203 0.0812763
thorax -4.25207 -2.07668 1.26278
lowerneck -13.8863 -5.28976 -2.97039
upperneck -6.57835 -7.70052 10.4767
head 0.858693 -4.14649 3.53535
rclavicle 3.34952e-014 -7.55382e-015
rhumerus 70.8037 17.163 5.40951
rradius 39.7999
rwrist -51.3838
rhand -43.6821 -6.59947
rfingers 7.12502
rthumb -16.5152 -35.9166
lclavicle 3.34952e-014 -7.55382e-015
lhumerus 70.7257 -18.5 -11.8157
lradius 31.8583
lwrist 2.01593
lhand -42.6721 13.1545
lfingers 7.12502
lthumb -15.5426 42.5499
rfemur -20.5506 -8.58781 23.5531
rtibia 56.1553
rfoot -27.1541 -7.51013
rtoes 3.45058
lfemur -19.2117 1.07917 -19.1727
ltibia 50.0068
lfoot -20.0804 -9.74118
ltoes -8.42474
157
root 0.139285 16.7115 6.5519 177.353 -9.18108 -180.173
lowerback 18.4566 -1.87832 -0.670358
upperback 5.73 -3.45715 0.0863118
thorax -4.11981 -2.06916 1.24014
lowerneck -13.8251 -5.29969 -2.94942
upperneck -6.4654 -7.70706 10.4532
head 0.884124 -4.14102 3.52258
rclavicle -8.10048e-015 -5.96354e-015
rhumerus 70.9097 17.3819 5.88365
rradius 39.87
rwrist -51.8167
rhand -43.8393 -6.67111
rfingers 7.12502
rthumb -16.6665 -35.9756
lclavicle -8.10048e-015 -5.96354e-015
lhumerus 70.7995 -18.6472 -11.6789
lradius 31.7899
lwrist 1.68044
lhand -42.5124 12.9842
lfingers 7.12502
lthumb -15.3887 42.3915
rfemur -19.6627 -8.14316 23.6466
rtibia 54.4371
rfoot -26.5415 -7.86594
rtoes 3.54631
lfemur -18.2863 0.933676 -19.1334
ltibia 48.1115
lfoot -19.2977 -9.43978
ltoes -9.29638
158
root 0.138121 16.808 6.52896 177.476 -9.22047 -180.143
lowerback 18.0493 -1.91245 -0.693752
upperback 5.65288 -3.47433 0.0932394
thorax -3.98609 -2.06688 1.24466
lowerneck -13.6937 -5.29884 -2.94108
upperneck -6.39535 -7.69449 10.4227
head 0.882159 -4.12887 3.51352
rclavicle 3.8266e-014 -1.5207e-014
rhumerus 71.0227 17.6282 6.17024
rradius 39.8991
rwrist -52.0456
rhand -43.9672 -6.81994
rfingers 7.12502
rthumb -16.7897 -36.114
lclavicle 3.8266e-014 -1.5207e-014
lhumerus 70.7832 -18.8081 -11.2719
lradius 31.6496
lwrist 1.18189
lhand -42.3514 12.7232
lfingers 7.12502
lthumb -15.2336 42.1423
rfemur -18.8043 -7.66259 23.7293
rtibia 52.7698
rfoot -25.9458 -8.26927
rtoes 3.60156
lfemur -17.4021 0.828139 -19.115
ltibia 46.2837
lfoot -18.5509 -9.17448
ltoes -10.1815
159
root 0.137097 16.8967 6.50445 177.589 -9.24827 -180.091
lowerback 17.6427 -1.95042 -0.680911
upperback 5.58146 -3.49199 0.0961305
thorax -3.84829 -2.06546 1.22431
lowerneck -13.6074 -5.2986 -2.95605
upperneck -6.31166 -7.68283 10.4149
head 0.894806 -4.11594 3.51532
rclavicle 1.27222e-014 -8.84592e-015
rhumerus 71.1154 17.902 6.2865
rradius 39.8535
rwrist -52.1112
rhand -44.0687 -6.83931
rfingers 7.12502
rthumb -16.8874 -36.1251
lclavicle 1.27222e-014 -8.84592e-015
lhumerus 70.7689 -18.9625 -10.966
lradius 31.5397
lwrist 0.799414
lhand -42.2029 12.5862
lfingers 7.12502
lthumb -15.0906 42.0161
rfemur -17.9663 -7.14649 23.844
rtibia 51.1769
rfoot -25.3643 -8.69794
rtoes 3.72167
lfemur -16.5401 0.773521 -19.0692
ltibia 44.5458
lfoot -17.8737 -8.94257
ltoes -11.0427
160
root 0.135428 16.9772 6.4787 177.703 -9.26437 -180.06
lowerback 17.2205 -1.97868 -0.700645
upperback 5.52002 -3.50382 0.107049
thorax -3.68879 -2.06231 1.22823
lowerneck -13.5274 -5.30885 -2.99333
upperneck -6.24355 -7.68254 10.4095
head 0.905289 -4.10925 3.52141
rclavicle -1.50082e-014 3.37934e-015
rhumerus 71.2001 18.1914 6.20891
rradius 39.7326
rwrist -51.9026
rhand -44.1506 -6.9657
rfingers 7.12502
rthumb -16.9661 -36.2447
lclavicle -1.50082e-014 3.37934e-015
lhumerus 70.7288 -19.0816 -10.5966
lradius 31.4058
lwrist 0.43384
lhand -42.0867 12.3479
lfingers 7.12502
lthumb -14.9787 41.7862
rfemur -17.167 -6.58485 23.9417
rtibia 49.6789
rfoot -24.8345 -9.14774
rtoes 3.81286
lfemur -15.726 0.75286 -19.0409
ltibia 42.904
lfoot -17.2659 -8.75457
ltoes -11.8323
161
root 0.133357 17.0482 6.45248 177.785 -9.29946 -180.025
lowerback 16.8227 -2.01931 -0.687431
upperback 5.46842 -3.53045 0.0921007
thorax -3.53435 -2.06729 1.19018
lowerneck -13.3988 -5.30346 -2.969
upperneck -6.20579 -7.66955 10.3893
head 0.892753 -4.1003 3.51336
rclavicle 4.69132e-014 -6.95746e-015
rhumerus 71.2512 18.4811 5.99282
rradius 39.5779
rwrist -51.6549
rhand -44.1717 -7.02574
rfingers 7.12502
rthumb -16.9865 -36.303
lclavicle 4.69132e-014 -6.95746e-015
lhumerus 70.73 -19.1884 -10.4106
lradius 31.3035
lwrist 0.238078
lhand -42.0182 12.2051
lfingers 7.12502
lthumb -14.9127 41.6483
rfemur -16.3868 -5.99761 24.0513
rtibia 48.2958
rfoot -24.372 -9.69266
rtoes 3.7511
lfemur -14.9317 0.705506 -19.011
ltibia 41.3814
lfoot -16.7182 -8.58243
ltoes -12.3622
162
root 0.131396 17.1102 6.42453 177.888 -9.31636 -179.993
lowerback 16.3714 -2.0448 -0.678972
upperback 5.42253 -3.53716 0.0770649
thorax -3.34523 -2.06258 1.14768
lowerneck -13.2554 -5.30645 -2.95589
upperneck -6.19511 -7.6661 10.3773
head 0.870317 -4.0977 3.51042
rclavicle -2.10215e-014 0
rhumerus 71.2877 18.6844 6.12267
rradius 39.5407
rwrist -51.6898
rhand -44.2753 -7.16659
rfingers 7.12502
rthumb -17.0862 -36.4352
lclavicle -2.10215e-014 0
lhumerus 70.7597 -19.266 -10.2543
lradius 31.2109
lwrist 0.0342435
lhand -41.9499 12.1624
lfingers 7.12502
lthumb -14.8469 41.6105
rfemur -15.6824 -5.35259 24.1682
rtibia 47.0401
rfoot -23.9703 -10.2565
rtoes 3.82871
lfemur -14.2068 0.656662 -18.9811
ltibia 39.9832
lfoot -16.2435 -8.41025
ltoes -12.8118
163
root 0.129184 17.1632 6.39657 177.981 -9.34312 -179.961
lowerback 15.9076 -2.0844 -0.65542
upperback 5.38798 -3.56242 0.0485718
thorax -3.1382 -2.06775 1.08491
lowerneck -13.1483 -5.30061 -2.94083
upperneck -6.15582 -7.6543 10.389
head 0.864234 -4.08944 3.51455
rclavicle 1.48592e-014 3.97569e-016
rhumerus 71.352 18.7756 6.4297
rradius 39.5708
rwrist -51.9421
rhand -44.3265 -7.28998
rfingers 7.12502
rthumb -17.1355 -36.5544
lclavicle 1.48592e-014 3.97569e-016
lhumerus 70.7777 -19.3149 -10.1883
lradius 31.1414
lwrist -0.101639
lhand -41.8769 12.137
lfingers 7.12502
lthumb -14.7765 41.5902
rfemur -15.0298 -4.6914 24.2966
rtibia 45.911
rfoot -23.6411 -10.8732
rtoes 3.84872
lfemur -13.5307 0.601787 -18.9553
ltibia 38.7083
lfoot -15.8354 -8.2345
ltoes -13.2608
164
root 0.126763 17.2082 6.36809 178.063 -9.35 -179.926
lowerback 15.4673 -2.11836 -0.659129
upperback 5.33634 -3.58211 0.0553136
thorax -2.95739 -2.06965 1.07501
lowerneck -12.9956 -5.2944 -2.95419
upperneck -6.14363 -7.63205 10.3413
head 0.838672 -4.07639 3.50562
rclavicle 3.19546e-014 4.17448e-015
rhumerus 71.4406 18.8799 6.81498
rradius 39.6487
rwrist -52.247
rhand -44.4232 -7.41253
rfingers 7.12502
rthumb -17.2286 -36.6688
lclavicle 3.19546e-014 4.17448e-015
lhumerus 70.7741 -19.3829 -10.1878
lradius 31.0973
lwrist -0.135924
lhand -41.8317 12.17
lfingers 7.12502
lthumb -14.7331 41.6264
rfemur -14.4182 -3.9524 24.4412
rtibia 44.9094
rfoot -23.3682 -11.5504
rtoes 3.82954
lfemur -12.891 0.552373 -18.9211
ltibia 37.5545
lfoot -15.4865 -8.08851
ltoes -13.335
